<svg width="25" height="17" viewBox="0 0 25 17" fill="none" xmlns="http://www.w3.org/2000/svg">
<path d="M11.3004 13.923C10.1163 12.5982 9.39125 10.8525 9.39125 8.93688C9.39125 7.02169 10.1164 5.27643 11.2997 3.95225C10.3812 3.36377 9.29402 3.02068 8.12674 3.02068C4.86373 3.02068 2.20867 5.67537 2.20867 8.93688C2.20867 12.1991 4.8638 14.8543 8.1267 14.8543L11.3004 13.923ZM11.3004 13.923C10.3569 14.5289 9.25584 14.8542 8.12674 14.8543L11.3004 13.923ZM24.3925 8.9368V8.93688C24.3925 13.0735 21.0287 16.4374 16.8921 16.4375L24.3925 8.9368ZM24.3925 8.9368C24.3918 4.80071 21.0279 1.4375 16.8919 1.4375C15.2559 1.4375 13.7425 1.96673 12.5093 2.85803M24.3925 8.9368L12.5093 2.85803M12.5093 2.85803C11.2376 1.93613 9.70414 1.43694 8.12674 1.4375L12.5093 2.85803ZM0.625488 8.93688C0.625488 4.80069 3.99005 1.4376 8.12655 1.4375L0.625488 8.93688ZM0.625488 8.93688C0.625488 13.0737 3.99007 16.4375 8.12674 16.4375M0.625488 8.93688L8.12674 16.4375M8.12674 16.4375C9.76261 16.4375 11.2755 15.9083 12.5082 15.0165M8.12674 16.4375L12.5082 15.0165M12.5082 15.0165C13.7801 15.9388 15.314 16.4382 16.8919 16.4375L12.5082 15.0165ZM13.7167 3.95155C14.6606 3.34557 15.7619 3.02015 16.8913 3.02005H16.8913C20.1536 3.02008 22.8087 5.67473 22.8087 8.93625V8.93634C22.8093 12.1992 20.1541 14.8543 16.8919 14.8543C15.7243 14.8543 14.6373 14.5114 13.7186 13.9228C14.2586 13.3197 14.698 12.6318 15.0185 11.8854C15.4185 10.9539 15.6248 9.9507 15.6249 8.93692V8.93688C15.6249 7.02182 14.8999 5.27627 13.7167 3.95155Z" fill="#FB8A22" stroke="#FB8A22"/>
</svg>
