<svg width="128" height="43" viewBox="0 0 128 43" fill="none" xmlns="http://www.w3.org/2000/svg">
<path d="M126.248 22.4951C110.299 8.10641 97.7162 -2.50776 75.5929 3.03845C65.0332 5.68572 58.0851 13.6443 57.7195 24.8255C57.0543 45.1724 86.9044 31.8092 79.5161 17.3513C65.9717 -9.15326 30.5488 6.22354 16.2167 23.1718C12.04 28.1109 7.38102 33.807 3.80288 39.124C0.69922 43.736 2.83608 37.3319 3.27502 35.2369C4.0882 31.3555 3.7597 27.6564 4.55455 23.8624C5.94543 17.2235 5.28086 23.6713 4.47766 26.6731C2.17367 35.2838 -1.77937 42.1987 9.94967 39.5928C12.31 39.0684 24.5853 37.3533 23.1861 36.2744C19.2191 33.2155 16.1556 27.5609 12.304 24.9343C7.03175 21.3388 5.14949 17.6588 10.2557 25.6711C11.9218 28.2854 13.7973 30.4648 15.5401 32.9435C18.4123 37.0285 13.6744 32.3193 13.438 31.6841C12.7513 29.8391 9.43141 27.1754 11.9927 30.8183C12.6522 31.7562 15.8673 35.1035 14.6743 34.3888C10.9075 32.1321 8.20487 25.4005 8.02507 28.7983C7.87397 31.6537 9.16073 32.881 11.6009 34.1545C12.4315 34.5879 16.7385 34.0186 15.3827 33.2063" stroke="#FB8A22" stroke-width="3" stroke-linecap="round"/>
</svg>
