<svg width="36" height="36" viewBox="0 0 36 36" fill="none" xmlns="http://www.w3.org/2000/svg">
<path fill-rule="evenodd" clip-rule="evenodd" d="M18.399 35.4823C28.0668 35.4823 35.904 27.645 35.904 17.9773C35.904 8.30955 28.0668 0.472288 18.399 0.472288C8.73128 0.472288 0.894043 8.30955 0.894043 17.9773C0.894043 27.645 8.73128 35.4823 18.399 35.4823ZM23.86 8.62685C24.1258 7.68264 23.2095 7.1243 22.3727 7.7205L10.6908 16.0426C9.78327 16.6892 9.92602 17.9773 10.9052 17.9773H13.9814V17.9535H19.9767L15.0917 19.6771L12.9381 27.3277C12.6723 28.272 13.5885 28.8303 14.4254 28.2341L26.1073 19.912C27.0148 19.2655 26.872 17.9773 25.8928 17.9773H21.2279L23.86 8.62685Z" fill="#155EEF"/>
</svg>
