<svg width="14" height="14" viewBox="0 0 14 14" fill="none" xmlns="http://www.w3.org/2000/svg">
<path d="M12.5882 13.9364C11.0595 13.9364 9.54922 13.6032 8.05726 12.937C6.56531 12.2707 5.20787 11.3259 3.98496 10.1025C2.76205 8.87912 1.81747 7.52168 1.15122 6.03021C0.484979 4.53875 0.151612 3.02845 0.151123 1.49932C0.151123 1.27919 0.224498 1.09576 0.371248 0.949006C0.517997 0.802257 0.701435 0.728882 0.921559 0.728882H3.89324C4.06445 0.728882 4.21731 0.787092 4.35183 0.903514C4.48635 1.01994 4.56584 1.15739 4.5903 1.31588L5.06724 3.884C5.0917 4.07967 5.08558 4.24476 5.04889 4.37928C5.01221 4.5138 4.94495 4.62998 4.84711 4.72781L3.06777 6.52549C3.31236 6.97797 3.60268 7.41504 3.93873 7.8367C4.27479 8.25836 4.64484 8.66511 5.04889 9.05693C5.428 9.43603 5.82544 9.78774 6.24124 10.1121C6.65703 10.4364 7.09728 10.7328 7.56198 11.0014L9.28629 9.27705C9.39635 9.16699 9.54017 9.08457 9.71774 9.02978C9.8953 8.97499 10.0694 8.95958 10.2402 8.98355L12.7716 9.49718C12.9428 9.54609 13.0834 9.63488 13.1935 9.76353C13.3036 9.89218 13.3586 10.0357 13.3586 10.1942V13.1659C13.3586 13.386 13.2852 13.5695 13.1385 13.7162C12.9917 13.863 12.8083 13.9364 12.5882 13.9364Z" fill="white"/>
</svg>
