<svg width="26" height="25" viewBox="0 0 26 25" fill="none" xmlns="http://www.w3.org/2000/svg">
<path fill-rule="evenodd" clip-rule="evenodd" d="M14.0655 5.87682C11.9305 5.20593 10.1421 5.6729 8.87778 6.79854C9.03125 6.87075 9.16703 6.97573 9.27554 7.10609C9.38406 7.23645 9.46267 7.38901 9.50585 7.55304C10.3215 10.6587 10.9333 9.32102 11.229 10.4609C11.4639 11.2695 11.6009 12.1034 11.6368 12.9447C11.6735 12.9303 11.7109 12.918 11.749 12.908C11.8971 12.868 12.0516 12.8577 12.2037 12.8777C12.3558 12.8978 12.5024 12.9477 12.6351 13.0247C12.7678 13.1016 12.8839 13.2041 12.9768 13.3262C13.0697 13.4482 13.1376 13.5875 13.1764 13.7359C13.7555 15.9137 13.7657 17.3412 13.26 18.426C12.8155 19.3233 12.1058 19.882 11.1229 20.3184C11.3126 20.5039 11.5104 20.6875 11.7184 20.8669C13.3497 22.0333 14.7772 21.8743 16.1006 21.1524C17.1549 21.652 18.2683 21.8498 19.4653 21.4012C21.2251 20.7405 23.0175 18.1385 23.8618 16.5071C25.697 12.9793 26.3333 8.45232 22.2182 6.24591C21.0946 5.64435 19.6916 5.46694 17.9134 5.86662C17.481 6.01082 17.0324 6.10055 16.5778 6.13376C16.5594 5.3172 16.6773 4.5033 16.9265 3.72547C17.2323 2.78709 17.776 1.944 18.5048 1.27844C18.57 1.23419 18.6249 1.1764 18.6658 1.10902C18.7067 1.04163 18.7325 0.966233 18.7417 0.887951C18.7508 0.809668 18.7429 0.730342 18.7186 0.655373C18.6943 0.580404 18.6541 0.511553 18.6008 0.453507C18.5475 0.39546 18.4823 0.349582 18.4097 0.318996C18.337 0.28841 18.2587 0.273834 18.1799 0.276261C18.1011 0.278688 18.0238 0.29806 17.9532 0.333059C17.8826 0.368057 17.8203 0.417861 17.7707 0.479078C16.8994 1.26998 16.2493 2.27433 15.8844 3.39308L15.8375 3.53787C14.7119 1.55781 12.7869 0.52598 9.64655 1.00723L8.40673 1.1357C9.31417 3.02195 10.4296 4.94491 12.7461 5.22836C13.6271 5.33643 14.5814 5.13863 15.601 4.6064L15.548 4.82052H15.5602C15.502 5.25782 15.4754 5.69875 15.4807 6.13988C15.0009 6.10213 14.5264 6.01326 14.0655 5.87478V5.87682ZM3.81242 6.83932C4.92378 5.07338 4.51595 3.46853 1.78751 2.12063C0.97183 4.1741 1.3083 6.36623 3.81242 6.83932ZM9.24687 20.9424L10.2257 20.5223L11.492 23.4485C11.7694 24.0909 10.7926 24.513 10.5153 23.8707L9.25095 20.9444L9.24687 20.9424ZM6.63263 12.2269C8.49645 11.5886 9.17142 10.8361 8.39041 7.84872C6.92627 9.00494 5.22355 9.83285 6.64078 12.2269H6.63263ZM5.30104 9.15584C7.03843 8.55836 7.66854 7.85892 6.93239 5.07746C5.57021 6.15211 3.9878 6.92293 5.30104 9.15584ZM8.81252 20.0166C6.60204 21.181 5.33162 21.1524 3.25573 17.8285C5.59468 17.4798 7.83575 16.6315 8.81252 20.0166ZM7.13631 16.1217C5.17053 17.1576 4.03062 17.1413 2.19331 14.1763C4.27328 13.8664 6.27169 13.1078 7.13631 16.1217ZM5.64362 12.6551C3.90419 13.5748 2.88459 13.5503 1.25324 10.9381C3.09871 10.6648 4.86669 9.99191 5.63954 12.6653L5.64362 12.6551ZM4.31203 9.57999C2.68067 10.4365 1.74672 10.4161 0.233643 7.97107C1.95064 7.71413 3.60035 7.09014 4.31203 9.57999ZM9.81785 19.572C12.1813 18.7564 13.0377 17.8102 12.0324 14.0254C10.1829 15.4977 8.02744 16.5479 9.81785 19.5782V19.572ZM8.13551 15.6894C10.2359 14.9696 10.9904 14.1213 10.1054 10.7566C8.45363 12.0576 6.53679 12.9997 8.13551 15.6894ZM9.52012 1.66997C11.8937 2.32047 13.4109 2.608 15.2992 4.30256C12.897 3.7112 11.4492 3.18917 9.52012 1.66997Z" fill="black"/>
</svg>
