<svg width="13" height="11" viewBox="0 0 13 11" fill="none" xmlns="http://www.w3.org/2000/svg">
<path fill-rule="evenodd" clip-rule="evenodd" d="M4.38255 0.836975C4.07823 0.837073 3.77933 0.917609 3.51616 1.07042C3.25298 1.22323 3.03487 1.44289 2.88392 1.70715L1.73693 3.71453H1.06761C1.00655 3.71453 0.948 3.73878 0.904828 3.78196C0.861656 3.82513 0.837403 3.88368 0.837403 3.94474V4.2181C0.83729 4.32087 0.871563 4.42072 0.934764 4.50176C0.997966 4.58279 1.08646 4.64035 1.18616 4.66528L1.19997 4.66815C0.959662 5.16693 0.868341 5.72445 0.936966 6.27383L1.35421 9.61237C1.38901 9.8908 1.52431 10.1469 1.73468 10.3326C1.94505 10.5183 2.21601 10.6207 2.4966 10.6207H2.56394C2.86921 10.6207 3.16197 10.4994 3.37783 10.2835C3.59369 10.0677 3.71496 9.77491 3.71496 9.46964H9.47007C9.47007 9.77491 9.59134 10.0677 9.8072 10.2835C10.0231 10.4994 10.3158 10.6207 10.6211 10.6207H10.6884C10.969 10.6207 11.24 10.5183 11.4504 10.3326C11.6607 10.1469 11.796 9.8908 11.8308 9.61237L12.2481 6.27441C12.3167 5.72502 12.2254 5.16751 11.9851 4.66873L11.9989 4.66528C12.0986 4.64035 12.1871 4.58279 12.2503 4.50176C12.3135 4.42072 12.3477 4.32087 12.3476 4.2181V3.94474C12.3476 3.88368 12.3234 3.82513 12.2802 3.78196C12.237 3.73878 12.1785 3.71453 12.1174 3.71453H11.4481L10.3011 1.70715C10.1502 1.44289 9.93205 1.22323 9.66888 1.07042C9.4057 0.917609 9.1068 0.837073 8.80248 0.836975H4.38255ZM10.2884 4.00459L9.30202 2.27806C9.25166 2.18989 9.17887 2.11661 9.09103 2.06567C9.00319 2.01473 8.90344 1.98793 8.8019 1.988H4.38313C4.28159 1.98793 4.18184 2.01473 4.094 2.06567C4.00617 2.11661 3.93337 2.18989 3.88301 2.27806L2.89658 4.00459C2.84659 4.0921 2.82046 4.19121 2.8208 4.29199C2.82114 4.39277 2.84794 4.49169 2.89852 4.57887C2.9491 4.66604 3.02168 4.7384 3.10901 4.78871C3.19634 4.83902 3.29534 4.86552 3.39613 4.86555H9.78891C9.88969 4.86552 9.9887 4.83902 10.076 4.78871C10.1633 4.7384 10.2359 4.66604 10.2865 4.57887C10.3371 4.49169 10.3639 4.39277 10.3642 4.29199C10.3646 4.19121 10.3384 4.0921 10.2884 4.00459ZM2.56394 7.19004V6.78719C2.56391 6.73733 2.57683 6.68832 2.60145 6.64497C2.62606 6.60161 2.66151 6.56539 2.70433 6.53986C2.74715 6.51433 2.79587 6.50037 2.84572 6.49933C2.89556 6.4983 2.94482 6.51023 2.98866 6.53396L4.56672 7.38572C4.78138 7.50197 4.69218 7.82829 4.44816 7.8185L3.11643 7.76498C2.96802 7.75904 2.82765 7.69595 2.72468 7.5889C2.62171 7.48186 2.56411 7.33915 2.56394 7.19062V7.19004ZM10.6211 6.78719V7.19004C10.6212 7.33877 10.5637 7.48177 10.4607 7.58906C10.3577 7.69636 10.2172 7.75961 10.0686 7.76555L8.73687 7.8185C8.49285 7.82829 8.40307 7.50197 8.61832 7.38572L10.1964 6.53396C10.2402 6.51023 10.2895 6.4983 10.3393 6.49933C10.3892 6.50037 10.4379 6.51433 10.4807 6.53986C10.5235 6.56539 10.559 6.60161 10.5836 6.64497C10.6082 6.68832 10.6211 6.73733 10.6211 6.78719Z" fill="#475467"/>
</svg>
