<svg width="18" height="13" viewBox="0 0 18 13" fill="none" xmlns="http://www.w3.org/2000/svg">
<path d="M8.8 4.10012C9.43652 4.10012 10.047 4.35298 10.4971 4.80307C10.9471 5.25315 11.2 5.8636 11.2 6.50012C11.2 7.13664 10.9471 7.74709 10.4971 8.19718C10.047 8.64727 9.43652 8.90012 8.8 8.90012C8.16348 8.90012 7.55303 8.64727 7.10294 8.19718C6.65286 7.74709 6.4 7.13664 6.4 6.50012C6.4 5.8636 6.65286 5.25315 7.10294 4.80307C7.55303 4.35298 8.16348 4.10012 8.8 4.10012ZM8.8 0.500122C12.8 0.500122 16.216 2.98812 17.6 6.50012C16.216 10.0121 12.8 12.5001 8.8 12.5001C4.8 12.5001 1.384 10.0121 0 6.50012C1.384 2.98812 4.8 0.500122 8.8 0.500122ZM1.744 6.50012C3.064 9.18812 5.792 10.9001 8.8 10.9001C11.808 10.9001 14.536 9.18812 15.856 6.50012C14.536 3.81212 11.808 2.10012 8.8 2.10012C5.792 2.10012 3.064 3.81212 1.744 6.50012Z" fill="#667085"/>
</svg>
