<svg width="16" height="15" viewBox="0 0 16 15" fill="none" xmlns="http://www.w3.org/2000/svg">
<path d="M14.8511 1.26145L14.207 0.617332C14.0249 0.435292 13.6888 0.463307 13.4788 0.715326L11.238 2.94189C10.2297 2.50782 9.12351 2.29777 7.96115 2.29777C4.50212 2.31172 1.50552 4.32823 0.0630349 7.22718C-0.0210116 7.40922 -0.0210116 7.63322 0.0630349 7.78725C0.735155 9.15963 1.74348 10.294 3.00382 11.1481L1.16934 13.0106C0.959285 13.2207 0.931269 13.5567 1.07135 13.7388L1.71547 14.3829C1.89751 14.565 2.23359 14.5369 2.44364 14.2849L14.7388 1.98975C15.0049 1.77981 15.0329 1.44375 14.8509 1.26169L14.8511 1.26145ZM8.70334 5.49048C8.46527 5.43445 8.21325 5.36447 7.97516 5.36447C6.7848 5.36447 5.83265 6.31674 5.83265 7.50698C5.83265 7.74505 5.88868 7.99707 5.95866 8.23515L5.02031 9.15943C4.74027 8.66934 4.58624 8.1231 4.58624 7.50701C4.58624 5.64453 6.08466 4.14611 7.94714 4.14611C8.56336 4.14611 9.10947 4.30014 9.59956 4.58018L8.70334 5.49048Z" fill="#667085"/>
<path d="M15.8594 7.22745C15.3693 6.24715 14.725 5.36498 13.9269 4.65076L11.3222 7.22745V7.50749C11.3222 9.36996 9.82375 10.8684 7.96127 10.8684H7.68123L6.02881 12.5208C6.64502 12.6468 7.28915 12.7309 7.91932 12.7309C11.3783 12.7309 14.375 10.7144 15.8174 7.80145C15.9434 7.60534 15.9434 7.40936 15.8594 7.2273L15.8594 7.22745Z" fill="#667085"/>
</svg>
