<svg width="36" height="36" viewBox="0 0 36 36" fill="none" xmlns="http://www.w3.org/2000/svg">
<path d="M29.2924 7.76334C28.9485 7.41943 28.6046 7.07552 28.2607 6.73161C27.2289 5.6311 26.1284 4.53059 24.7528 3.84277C23.1708 3.01739 21.4513 3.22373 19.7317 3.22373C17.118 3.22373 10.5837 3.22373 6.73193 3.22373L9.34565 6.73161C14.0916 6.73161 21.52 6.73161 24.9591 6.73161C26.4036 6.73161 27.6416 7.00674 28.8109 7.76334C29.0173 7.83212 29.2236 7.83212 29.2924 7.76334Z" fill="#66C61C"/>
<path d="M32.181 13.4037C31.8371 13.0598 31.4932 12.7159 31.1493 12.372C30.1175 11.2715 29.017 10.171 27.6414 9.48314C26.0594 8.65776 24.3399 8.86411 22.6203 8.86411C20.3505 8.86411 14.9167 8.86411 11.0649 8.86411L13.6787 12.372C18.3558 12.372 24.7525 12.372 27.9165 12.372C29.3609 12.372 30.599 12.6471 31.7683 13.4037C31.9059 13.4725 32.0434 13.4725 32.181 13.4037Z" fill="#4CA30D"/>
<path d="M35.4133 18.9059C35.0694 18.562 34.7255 18.2181 34.3816 17.8742C33.3499 16.7737 32.2494 15.6732 30.8737 14.9853C29.2918 14.16 27.5722 14.3663 25.8527 14.3663C23.7204 14.3663 19.0433 14.3663 15.2603 14.3663L17.874 17.8742C22.4136 17.8742 28.1913 17.8742 31.0801 17.8742C32.5245 17.8742 33.7626 18.1493 34.9319 18.9059C35.1382 18.9747 35.2758 19.0435 35.4133 18.9059Z" fill="#3B7C0F"/>
<path d="M6.45654 28.1913C6.80045 28.5352 7.14436 28.8792 7.48827 29.2231C8.52 30.3236 9.6205 31.4241 10.9961 32.1119C12.5781 32.9373 14.2977 32.7309 16.0172 32.7309H29.017L26.4033 29.2231C21.6573 29.2231 14.2289 29.2231 10.7898 29.2231C9.34539 29.2231 8.10731 28.9479 6.93801 28.1913C6.73167 28.1226 6.59411 28.1226 6.45654 28.1913Z" fill="#66C61C"/>
<path d="M3.56787 22.5513C3.91178 22.8952 4.25569 23.2391 4.5996 23.583C5.63133 24.6836 6.73183 25.7841 8.10747 26.4719C9.68945 27.2973 11.409 27.0909 13.1286 27.0909H24.6839L22.0702 23.583C17.393 23.583 10.9963 23.583 7.83235 23.583C6.38793 23.583 5.14985 23.3079 3.98056 22.5513C3.84299 22.4825 3.70543 22.4825 3.56787 22.5513Z" fill="#4CA30D"/>
<path d="M0.403809 16.9802C0.747718 17.3241 1.09163 17.668 1.43554 18.0119C2.46727 19.1124 3.56778 20.2129 4.94342 20.9007C6.5254 21.7261 8.24494 21.5198 9.96449 21.5198H20.5569L17.9432 18.0119C13.4036 18.0119 7.62591 18.0119 4.73707 18.0119C3.29265 18.0119 2.05457 17.7368 0.88528 16.9802C0.678934 16.9114 0.541372 16.9114 0.403809 16.9802Z" fill="#3B7C0F"/>
</svg>
