<svg width="19" height="19" viewBox="0 0 19 19" fill="none" xmlns="http://www.w3.org/2000/svg">
<path fill-rule="evenodd" clip-rule="evenodd" d="M18.14 9.23983C18.14 8.60165 18.0827 7.98802 17.9764 7.39893H9.5V10.8803H14.3436C14.135 12.0053 13.5009 12.9585 12.5477 13.5967V15.8548H15.4564C17.1582 14.288 18.14 11.9807 18.14 9.23983Z" fill="#4285F4"/>
<path fill-rule="evenodd" clip-rule="evenodd" d="M9.5 18.0355C11.93 18.0355 13.9673 17.2296 15.4564 15.855L12.5477 13.5968C11.7418 14.1368 10.7109 14.4559 9.5 14.4559C7.15591 14.4559 5.17182 12.8728 4.46409 10.7455H1.45728V13.0773C2.93818 16.0187 5.98182 18.0355 9.5 18.0355Z" fill="#34A853"/>
<path fill-rule="evenodd" clip-rule="evenodd" d="M4.46409 10.7451C4.28409 10.2051 4.18182 9.62828 4.18182 9.0351C4.18182 8.44192 4.28409 7.8651 4.46409 7.3251V4.99329H1.45727C0.847727 6.20829 0.5 7.58283 0.5 9.0351C0.5 10.4874 0.847727 11.8619 1.45727 13.0769L4.46409 10.7451Z" fill="#FBBC05"/>
<path fill-rule="evenodd" clip-rule="evenodd" d="M9.5 3.61482C10.8214 3.61482 12.0077 4.06891 12.9405 4.96073L15.5218 2.37937C13.9632 0.927096 11.9259 0.0352783 9.5 0.0352783C5.98182 0.0352783 2.93818 2.0521 1.45728 4.99346L4.46409 7.32528C5.17182 5.198 7.15591 3.61482 9.5 3.61482Z" fill="#EA4335"/>
</svg>
