<svg width="18" height="16" viewBox="0 0 18 16" fill="none" xmlns="http://www.w3.org/2000/svg">
<path fill-rule="evenodd" clip-rule="evenodd" d="M1.77738 8.17268C0.908245 7.27493 0.420166 6.06156 0.420166 4.79647C0.420166 3.52436 0.913381 2.30399 1.79194 1.40449C2.67049 0.504985 3.86245 0 5.10493 0C6.34741 0 7.53937 0.504985 8.41792 1.40449L8.73817 1.73238L9.05843 1.40449C9.93699 0.504985 11.1281 0 12.3706 0C13.6139 0 14.805 0.504985 15.6836 1.40449C16.5621 2.30399 17.0562 3.52436 17.0562 4.79647C17.0562 6.06156 16.5681 7.27493 15.6981 8.17268L9.34272 15.0627C9.18602 15.2328 8.9668 15.3292 8.73817 15.3292C8.50954 15.3292 8.29034 15.2328 8.13364 15.0627L1.77738 8.17268Z" fill="white"/>
<path fill-rule="evenodd" clip-rule="evenodd" d="M1.77762 8.17268C0.908489 7.27493 0.42041 6.06156 0.42041 4.79647C0.42041 3.52436 0.913625 2.30399 1.79218 1.40449C2.67074 0.504985 3.8627 0 5.10517 0C6.34765 0 7.53961 0.504985 8.41817 1.40449L8.73842 1.73238L9.05868 1.40449C9.93723 0.504985 11.1283 0 12.3708 0C13.6141 0 14.8052 0.504985 15.6838 1.40449C16.5624 2.30399 17.0564 3.52436 17.0564 4.79647C17.0564 6.06156 16.5683 7.27493 15.6984 8.17268L9.34297 15.0627C9.18626 15.2328 8.96704 15.3292 8.73842 15.3292C8.50979 15.3292 8.29058 15.2328 8.13388 15.0627L1.77762 8.17268ZM8.73842 13.2374L14.491 7.00139L14.5081 6.98386C15.0741 6.40348 15.3927 5.61707 15.3927 4.79647C15.3927 3.97587 15.0741 3.18947 14.5081 2.60908C13.9412 2.0287 13.1723 1.70257 12.3708 1.70257C11.5702 1.70257 10.8012 2.0287 10.2344 2.60908L9.3267 3.53927C9.00131 3.87154 8.47468 3.87154 8.15015 3.53927L7.24162 2.60908C6.67561 2.0287 5.90666 1.70257 5.10517 1.70257C4.30369 1.70257 3.5356 2.0287 2.96873 2.60908C2.40187 3.18947 2.08418 3.97587 2.08418 4.79647C2.08418 5.61707 2.40187 6.40348 2.96873 6.98386C2.97473 6.98999 2.97986 6.99525 2.985 7.00139L8.73842 13.2374Z" fill="white"/>
</svg>
