<svg width="19" height="17" viewBox="0 0 19 17" fill="none" xmlns="http://www.w3.org/2000/svg">
<path fill-rule="evenodd" clip-rule="evenodd" d="M2.25864 9.13969C1.331 8.1815 0.810059 6.88645 0.810059 5.53619C0.810059 4.17844 1.33648 2.87591 2.27418 1.91585C3.21188 0.955791 4.48409 0.416809 5.81021 0.416809C7.13634 0.416809 8.40855 0.955791 9.34625 1.91585L9.68805 2.26581L10.0299 1.91585C10.9676 0.955791 12.2389 0.416809 13.565 0.416809C14.892 0.416809 16.1633 0.955791 17.101 1.91585C18.0387 2.87591 18.5661 4.17844 18.5661 5.53619C18.5661 6.88645 18.0451 8.1815 17.1166 9.13969L10.3333 16.4936C10.1661 16.6751 9.93208 16.7781 9.68805 16.7781C9.44403 16.7781 9.21007 16.6751 9.04282 16.4936L2.25864 9.13969Z" fill="#FB8A22"/>
<path fill-rule="evenodd" clip-rule="evenodd" d="M2.25889 9.13969C1.33124 8.1815 0.810303 6.88645 0.810303 5.53619C0.810303 4.17844 1.33672 2.87591 2.27442 1.91585C3.21213 0.955791 4.48433 0.416809 5.81046 0.416809C7.13658 0.416809 8.40879 0.955791 9.34649 1.91585L9.6883 2.26581L10.0301 1.91585C10.9678 0.955791 12.2391 0.416809 13.5652 0.416809C14.8923 0.416809 16.1636 0.955791 17.1013 1.91585C18.039 2.87591 18.5663 4.17844 18.5663 5.53619C18.5663 6.88645 18.0454 8.1815 17.1168 9.13969L10.3335 16.4936C10.1663 16.6751 9.93232 16.7781 9.6883 16.7781C9.44428 16.7781 9.21031 16.6751 9.04306 16.4936L2.25889 9.13969ZM9.6883 14.5454L15.8281 7.88955L15.8464 7.87084C16.4505 7.25139 16.7905 6.41203 16.7905 5.53619C16.7905 4.66034 16.4505 3.821 15.8464 3.20155C15.2414 2.58209 14.4207 2.234 13.5652 2.234C12.7107 2.234 11.89 2.58209 11.285 3.20155L10.3162 4.19435C9.96889 4.54899 9.40681 4.54899 9.06042 4.19435L8.09073 3.20155C7.48662 2.58209 6.6659 2.234 5.81046 2.234C4.95501 2.234 4.13521 2.58209 3.53018 3.20155C2.92516 3.821 2.58608 4.66034 2.58608 5.53619C2.58608 6.41203 2.92516 7.25139 3.53018 7.87084C3.53658 7.87739 3.54206 7.883 3.54755 7.88955L9.6883 14.5454Z" fill="#FB8A22"/>
</svg>
