<svg width="19" height="18" viewBox="0 0 19 18" fill="none" xmlns="http://www.w3.org/2000/svg">
<path fill-rule="evenodd" clip-rule="evenodd" d="M2.25889 9.54926C1.33124 8.59107 0.810303 7.29602 0.810303 5.94576C0.810303 4.58801 1.33672 3.28548 2.27442 2.32542C3.21213 1.36536 4.48433 0.826378 5.81046 0.826378C7.13658 0.826378 8.40879 1.36536 9.34649 2.32542L9.6883 2.67538L10.0301 2.32542C10.9678 1.36536 12.2391 0.826378 13.5652 0.826378C14.8923 0.826378 16.1636 1.36536 17.1013 2.32542C18.039 3.28548 18.5663 4.58801 18.5663 5.94576C18.5663 7.29602 18.0454 8.59107 17.1168 9.54926L10.3335 16.9032C10.1663 17.0847 9.93232 17.1876 9.6883 17.1876C9.44428 17.1876 9.21031 17.0847 9.04306 16.9032L2.25889 9.54926ZM9.6883 14.955L15.8281 8.29912L15.8464 8.28041C16.4505 7.66095 16.7905 6.8216 16.7905 5.94576C16.7905 5.06991 16.4505 4.23057 15.8464 3.61111C15.2414 2.99166 14.4207 2.64356 13.5652 2.64356C12.7107 2.64356 11.89 2.99166 11.285 3.61111L10.3162 4.60392C9.96889 4.95856 9.40681 4.95856 9.06042 4.60392L8.09073 3.61111C7.48662 2.99166 6.6659 2.64356 5.81046 2.64356C4.95501 2.64356 4.13521 2.99166 3.53018 3.61111C2.92516 4.23057 2.58608 5.06991 2.58608 5.94576C2.58608 6.8216 2.92516 7.66095 3.53018 8.28041C3.53658 8.28696 3.54206 8.29257 3.54755 8.29912L9.6883 14.955Z" fill="#FB8A22"/>
</svg>
