<svg width="27" height="27" viewBox="0 0 27 27" fill="none" xmlns="http://www.w3.org/2000/svg">
<path d="M17.2812 26.9841C17.6623 26.9841 17.9695 26.6743 17.9695 26.2959V24.9304C16.4613 25.4705 14.8545 25.7557 13.212 25.7557C11.5695 25.7557 9.95997 25.4733 8.45459 24.9304V26.2959C8.45459 26.677 8.76444 26.9841 9.14284 26.9841H17.2812Z" fill="#FB8A22"/>
<path d="M24.3803 4.12099C23.267 3.2929 21.6931 3.52323 20.8623 4.6365L15.9102 11.2914H22.1785L24.8958 7.63903C25.7239 6.52579 25.4936 4.95186 24.3803 4.12099Z" fill="#FB8A22"/>
<path d="M8.69583 24.2531C10.1025 24.7603 11.6243 25.0346 13.212 25.0346C14.7996 25.0346 16.3214 24.7603 17.7281 24.2531C22.3594 22.5887 25.7595 18.4208 26.2312 13.3233C26.297 12.6186 25.7376 12.0099 25.0302 12.0099H21.641H15.3754H1.39378C0.686335 12.0099 0.126958 12.6186 0.192767 13.3233C0.664398 18.4208 4.06453 22.5887 8.69583 24.2531Z" fill="#FB8A22"/>
<path d="M4.45673 7.53761L5.40548 5.22881L7.84041 4.16213L5.38628 3.22712L4.45673 0.984131L3.52444 3.22712L1.07031 4.16213L3.50524 5.22881L4.45673 7.53761Z" fill="#FB8A22"/>
</svg>
