<svg width="40" height="40" viewBox="0 0 40 40" fill="none" xmlns="http://www.w3.org/2000/svg">
<rect x="0.569824" y="0.374557" width="39.1767" height="39.1767" rx="8.70594" fill="#FB8A22" fill-opacity="0.1"/>
<path fill-rule="evenodd" clip-rule="evenodd" d="M10.3638 19.9625C10.3638 16.0501 10.3638 14.0939 11.2961 12.6849C11.7124 12.0557 12.2512 11.5169 12.8804 11.1006C14.2894 10.1683 16.2456 10.1683 20.1579 10.1683C24.0703 10.1683 26.0265 10.1683 27.4355 11.1006C28.0647 11.5169 28.6035 12.0557 29.0198 12.6849C29.9521 14.0939 29.9521 16.0501 29.9521 19.9625C29.9521 23.8749 29.9521 25.831 29.0198 27.24C28.6035 27.8692 28.0647 28.4081 27.4355 28.8244C26.0265 29.7566 24.0703 29.7566 20.1579 29.7566C16.2456 29.7566 14.2894 29.7566 12.8804 28.8244C12.2512 28.4081 11.7124 27.8692 11.2961 27.24C10.3638 25.831 10.3638 23.8749 10.3638 19.9625ZM25.2285 19.9625C25.2285 22.7629 22.9584 25.0331 20.158 25.0331C17.3576 25.0331 15.0874 22.7629 15.0874 19.9625C15.0874 17.1621 17.3576 14.892 20.158 14.892C22.9584 14.892 25.2285 17.1621 25.2285 19.9625ZM20.158 23.3176C22.0109 23.3176 23.513 21.8155 23.513 19.9625C23.513 18.1096 22.0109 16.6075 20.158 16.6075C18.305 16.6075 16.8029 18.1096 16.8029 19.9625C16.8029 21.8155 18.305 23.3176 20.158 23.3176ZM25.4285 15.8287C26.0865 15.8287 26.6199 15.2953 26.6199 14.6372C26.6199 13.9792 26.0865 13.4458 25.4285 13.4458C24.7705 13.4458 24.2371 13.9792 24.2371 14.6372C24.2371 15.2953 24.7705 15.8287 25.4285 15.8287Z" fill="#FB8A22"/>
</svg>
