<svg width="31" height="36" viewBox="0 0 31 36" fill="none" xmlns="http://www.w3.org/2000/svg">
<path fill-rule="evenodd" clip-rule="evenodd" d="M16.4053 1.62457C16.0034 1.54192 15.5889 1.54192 15.1871 1.62457C14.7226 1.72011 14.3074 1.95265 13.9773 2.13753L13.8873 2.18779L2.70047 8.40272C2.66954 8.4199 2.63767 8.43746 2.60502 8.45544C2.25561 8.6479 1.81627 8.88988 1.47889 9.25599C1.1872 9.57252 0.966455 9.94768 0.83142 10.3564C0.675231 10.8291 0.677058 11.3307 0.678512 11.7296C0.678647 11.7669 0.67878 11.8032 0.67878 11.8386V24.1096C0.67878 24.1449 0.678647 24.1813 0.678512 24.2186C0.677058 24.6175 0.675231 25.1191 0.83142 25.5918C0.966456 26.0005 1.1872 26.3757 1.47889 26.6922C1.81628 27.0583 2.25561 27.3003 2.60502 27.4927C2.63768 27.5107 2.66955 27.5283 2.70047 27.5455L13.8873 33.7604L13.9773 33.8106C14.3074 33.9955 14.7226 34.2281 15.1871 34.3236C15.5889 34.4062 16.0034 34.4062 16.4053 34.3236C16.8698 34.2281 17.285 33.9955 17.615 33.8106L17.705 33.7604L28.8919 27.5455C28.9055 27.5379 28.9194 27.5302 28.9334 27.5224C28.9511 27.5127 28.9691 27.5028 28.9873 27.4927C29.3367 27.3003 29.7761 27.0583 30.1135 26.6922C30.4051 26.3757 30.6259 26.0005 30.7609 25.5918C30.9171 25.1191 30.9153 24.6175 30.9138 24.2186C30.9137 24.1813 30.9136 24.1449 30.9136 24.1096V11.8386C30.9136 11.8032 30.9137 11.7669 30.9138 11.7296C30.9153 11.3307 30.9171 10.8291 30.7609 10.3564C30.6259 9.94768 30.4051 9.57251 30.1135 9.25599C29.7761 8.88987 29.3367 8.64789 28.9873 8.45543L28.9861 8.45476C28.9539 8.43701 28.9224 8.41968 28.8919 8.40272L17.705 2.18779L17.615 2.13752C17.285 1.95265 16.8698 1.72011 16.4053 1.62457ZM15.3557 4.83078C15.5848 4.70351 15.7017 4.6392 15.7889 4.59713L15.7962 4.59367L15.8034 4.59713C15.8906 4.6392 16.0076 4.70351 16.2367 4.83078L26.2889 10.4154L15.7961 16.2447L5.3034 10.4154L15.3557 4.83078ZM3.70226 12.9846L14.2844 18.8636L14.2844 30.5222L4.1688 24.9025C3.927 24.7681 3.80354 24.6988 3.71692 24.6436L3.70961 24.6389L3.70906 24.6303C3.70289 24.5278 3.70226 24.3862 3.70226 24.1096V12.9846Z" fill="#101828"/>
</svg>
