<svg width="40" height="40" viewBox="0 0 40 40" fill="none" xmlns="http://www.w3.org/2000/svg">
<rect x="0.158691" y="0.374451" width="39.1767" height="39.1767" rx="8.70594" fill="#FB8A22" fill-opacity="0.1"/>
<path d="M9.95264 12.8022C9.95264 12.174 10.1732 11.6558 10.6144 11.2475C11.0556 10.8392 11.6291 10.6351 12.335 10.6351C13.0283 10.6351 13.5892 10.8361 14.0178 11.2381C14.459 11.6527 14.6796 12.1929 14.6796 12.8587C14.6796 13.4617 14.4653 13.9642 14.0367 14.3662C13.5955 14.7808 13.0157 14.9881 12.2972 14.9881H12.2783C11.585 14.9881 11.0241 14.7808 10.5955 14.3662C10.1669 13.9516 9.95264 13.4303 9.95264 12.8022ZM10.1984 29.2907V16.7029H14.3959V29.2907H10.1984ZM16.7216 29.2907H20.9191V22.2619C20.9191 21.8222 20.9695 21.483 21.0704 21.2443C21.2468 20.8171 21.5147 20.456 21.8739 20.1607C22.2332 19.8655 22.6838 19.7179 23.2258 19.7179C24.6376 19.7179 25.3435 20.6664 25.3435 22.5634V29.2907H29.541V22.0734C29.541 20.2141 29.0998 18.804 28.2175 17.8429C27.3351 16.8819 26.1691 16.4014 24.7195 16.4014C23.0935 16.4014 21.8267 17.0986 20.9191 18.4931V18.5307H20.9002L20.9191 18.4931V16.7029H16.7216C16.7468 17.1049 16.7594 18.3549 16.7594 20.4528C16.7594 22.5508 16.7468 25.4967 16.7216 29.2907Z" fill="#FB8A22"/>
</svg>
