<svg width="14" height="10" viewBox="0 0 14 10" fill="none" xmlns="http://www.w3.org/2000/svg">
<path fill-rule="evenodd" clip-rule="evenodd" d="M1.76234 2.27273C2.06372 2.27273 2.35276 2.153 2.56587 1.93989C2.77898 1.72678 2.8987 1.43775 2.8987 1.13636C2.8987 0.834981 2.77898 0.545943 2.56587 0.332833C2.35276 0.119724 2.06372 0 1.76234 0C1.46096 0 1.17192 0.119724 0.95881 0.332833C0.7457 0.545943 0.625977 0.834981 0.625977 1.13636C0.625977 1.43775 0.7457 1.72678 0.95881 1.93989C1.17192 2.153 1.46096 2.27273 1.76234 2.27273ZM4.71689 0.454545C4.53606 0.454545 4.36263 0.52638 4.23477 0.654245C4.1069 0.782111 4.03507 0.955534 4.03507 1.13636C4.03507 1.31719 4.1069 1.49062 4.23477 1.61848C4.36263 1.74635 4.53606 1.81818 4.71689 1.81818H12.4442C12.625 1.81818 12.7984 1.74635 12.9263 1.61848C13.0541 1.49062 13.126 1.31719 13.126 1.13636C13.126 0.955534 13.0541 0.782111 12.9263 0.654245C12.7984 0.52638 12.625 0.454545 12.4442 0.454545H4.71689ZM4.71689 8.18182C4.53606 8.18182 4.36263 8.25365 4.23477 8.38152C4.1069 8.50938 4.03507 8.68281 4.03507 8.86364C4.03507 9.04447 4.1069 9.21789 4.23477 9.34575C4.36263 9.47362 4.53606 9.54545 4.71689 9.54545H12.4442C12.625 9.54545 12.7984 9.47362 12.9263 9.34575C13.0541 9.21789 13.126 9.04447 13.126 8.86364C13.126 8.68281 13.0541 8.50938 12.9263 8.38152C12.7984 8.25365 12.625 8.18182 12.4442 8.18182H4.71689ZM4.03507 5C4.03507 4.81917 4.1069 4.64575 4.23477 4.51788C4.36263 4.39002 4.53606 4.31818 4.71689 4.31818H12.4442C12.625 4.31818 12.7984 4.39002 12.9263 4.51788C13.0541 4.64575 13.126 4.81917 13.126 5C13.126 5.18083 13.0541 5.35425 12.9263 5.48212C12.7984 5.60998 12.625 5.68182 12.4442 5.68182H4.71689C4.53606 5.68182 4.36263 5.60998 4.23477 5.48212C4.1069 5.35425 4.03507 5.18083 4.03507 5ZM2.8987 5C2.8987 5.30138 2.77898 5.59042 2.56587 5.80353C2.35276 6.01664 2.06372 6.13636 1.76234 6.13636C1.46096 6.13636 1.17192 6.01664 0.95881 5.80353C0.7457 5.59042 0.625977 5.30138 0.625977 5C0.625977 4.69862 0.7457 4.40958 0.95881 4.19647C1.17192 3.98336 1.46096 3.86364 1.76234 3.86364C2.06372 3.86364 2.35276 3.98336 2.56587 4.19647C2.77898 4.40958 2.8987 4.69862 2.8987 5ZM1.76234 10C2.06372 10 2.35276 9.88028 2.56587 9.66717C2.77898 9.45406 2.8987 9.16502 2.8987 8.86364C2.8987 8.56225 2.77898 8.27322 2.56587 8.06011C2.35276 7.847 2.06372 7.72727 1.76234 7.72727C1.46096 7.72727 1.17192 7.847 0.95881 8.06011C0.7457 8.27322 0.625977 8.56225 0.625977 8.86364C0.625977 9.16502 0.7457 9.45406 0.95881 9.66717C1.17192 9.88028 1.46096 10 1.76234 10Z" fill="white"/>
</svg>
