<svg width="17" height="21" viewBox="0 0 17 21" fill="none" xmlns="http://www.w3.org/2000/svg">
<path d="M8.76047 0.233093C6.67738 0.235551 4.68031 1.06414 3.20735 2.53711C1.73438 4.01008 0.905786 6.00715 0.903329 8.09024C0.900834 9.79254 1.45689 11.4487 2.48619 12.8045C2.48619 12.8045 2.70047 13.0867 2.73547 13.1274L8.76047 20.2331L14.7883 13.1238C14.8198 13.086 15.0348 12.8045 15.0348 12.8045L15.0355 12.8024C16.0643 11.4471 16.6201 9.79176 16.6176 8.09024C16.6152 6.00715 15.7866 4.01008 14.3136 2.53711C12.8406 1.06414 10.8436 0.235551 8.76047 0.233093ZM8.76047 10.9474C8.19538 10.9474 7.64298 10.7798 7.17313 10.4659C6.70327 10.1519 6.33707 9.70569 6.12081 9.18362C5.90456 8.66154 5.84798 8.08707 5.95823 7.53284C6.06847 6.9786 6.34059 6.46951 6.74017 6.06993C7.13974 5.67035 7.64884 5.39824 8.20307 5.28799C8.7573 5.17775 9.33178 5.23433 9.85385 5.45058C10.3759 5.66683 10.8222 6.03304 11.1361 6.50289C11.45 6.97275 11.6176 7.52515 11.6176 8.09024C11.6167 8.84771 11.3153 9.57388 10.7797 10.1095C10.2441 10.6451 9.51794 10.9464 8.76047 10.9474Z" fill="black"/>
</svg>
