<svg width="14" height="19" viewBox="0 0 14 19" fill="none" xmlns="http://www.w3.org/2000/svg">
<path d="M6.99805 1.84961C3.96159 1.84961 1.49805 4.21088 1.49805 7.1191C1.49805 10.4654 5.16471 15.7684 6.51107 17.6C6.56695 17.6773 6.6402 17.7402 6.72483 17.7836C6.80947 17.827 6.90308 17.8496 6.99805 17.8496C7.09301 17.8496 7.18663 17.827 7.27126 17.7836C7.35589 17.7402 7.42914 17.6773 7.48503 17.6C8.83138 15.7691 12.498 10.4681 12.498 7.1191C12.498 4.21088 10.0345 1.84961 6.99805 1.84961Z" stroke="black" stroke-width="2" stroke-linecap="round" stroke-linejoin="round"/>
<path d="M6.99805 9.34937C7.96455 9.34937 8.74805 8.5099 8.74805 7.47437C8.74805 6.43883 7.96455 5.59937 6.99805 5.59937C6.03155 5.59937 5.24805 6.43883 5.24805 7.47437C5.24805 8.5099 6.03155 9.34937 6.99805 9.34937Z" stroke="black" stroke-width="2" stroke-linecap="round" stroke-linejoin="round"/>
</svg>
