<svg width="6" height="9" viewBox="0 0 6 9" fill="none" xmlns="http://www.w3.org/2000/svg">
<path d="M2.9375 4.22117C2.69165 4.22117 2.45588 4.12351 2.28205 3.94967C2.10821 3.77583 2.01055 3.54006 2.01055 3.29422C2.01055 3.04838 2.10821 2.8126 2.28205 2.63877C2.45588 2.46493 2.69165 2.36727 2.9375 2.36727C3.18334 2.36727 3.41911 2.46493 3.59295 2.63877C3.76678 2.8126 3.86444 3.04838 3.86444 3.29422C3.86444 3.41595 3.84047 3.53648 3.79389 3.64895C3.7473 3.76141 3.67902 3.86359 3.59295 3.94967C3.50687 4.03574 3.40469 4.10402 3.29222 4.15061C3.17976 4.19719 3.05923 4.22117 2.9375 4.22117ZM2.9375 0.698761C2.24914 0.698761 1.58897 0.97221 1.10223 1.45895C0.61549 1.94569 0.342041 2.60586 0.342041 3.29422C0.342041 5.24081 2.9375 8.11435 2.9375 8.11435C2.9375 8.11435 5.53295 5.24081 5.53295 3.29422C5.53295 2.60586 5.2595 1.94569 4.77276 1.45895C4.28602 0.97221 3.62585 0.698761 2.9375 0.698761Z" fill="#FDFDFD"/>
</svg>
