<svg width="21" height="21" viewBox="0 0 21 21" fill="none" xmlns="http://www.w3.org/2000/svg">
<path d="M14.376 8.47437H6.07246C4.92598 8.47437 3.99658 9.40377 3.99658 10.5502V16.7779C3.99658 17.9244 4.92598 18.8538 6.07246 18.8538H14.376C15.5225 18.8538 16.4519 17.9244 16.4519 16.7779V10.5502C16.4519 9.40377 15.5225 8.47437 14.376 8.47437Z" stroke="black" stroke-width="1.99284" stroke-linecap="round" stroke-linejoin="round"/>
<path d="M10.2245 2.24683C9.1234 2.24683 8.06738 2.68424 7.28877 3.46285C6.51017 4.24145 6.07275 5.29747 6.07275 6.39858V8.47446H14.3763V6.39858C14.3763 5.29747 13.9389 4.24145 13.1602 3.46285C12.3816 2.68424 11.3256 2.24683 10.2245 2.24683V2.24683Z" stroke="black" stroke-width="1.99284" stroke-linecap="round" stroke-linejoin="round"/>
</svg>
