<svg width="12" height="10" viewBox="0 0 12 10" fill="none" xmlns="http://www.w3.org/2000/svg">
<path d="M7.1973 10V1.62716L4.72474 0.115311C4.63975 0.0602178 4.5396 0.0251975 4.44458 0V8.48836L6.96689 9.89985C7.04024 9.94061 7.11741 9.97409 7.1973 9.99979M1.23638 9.84967C1.36663 9.84967 1.49177 9.80974 1.65705 9.71941L3.7589 8.58851V0.0905402C3.66879 0.135383 3.57377 0.185565 3.47874 0.240658L1.10633 1.59705C0.806097 1.76703 0.666016 2.00726 0.666016 2.34273V9.27418C0.666016 9.64467 0.881049 9.84988 1.23659 9.84988M7.88318 9.98996C7.93315 9.97502 7.98312 9.95494 8.0333 9.91992L10.6506 8.4337C10.946 8.26842 11.0863 8.02797 11.0863 7.69272V0.751228C11.0863 0.380739 10.8759 0.180653 10.5157 0.180653C10.3906 0.180653 10.2605 0.215674 10.1001 0.305787L7.88318 1.53662V9.98996Z" fill="white"/>
</svg>
