<svg width="30" height="29" viewBox="0 0 30 29" fill="none" xmlns="http://www.w3.org/2000/svg">
<path d="M9.30112 8.58813C9.39467 8.68168 9.51748 8.72869 9.64029 8.72869C9.76311 8.72869 9.88592 8.68168 9.97947 8.58813C10.167 8.40055 10.167 8.09735 9.97947 7.90978C9.49254 7.42236 9.49254 6.62984 9.97947 6.14242C10.3968 5.72505 10.6271 5.17047 10.6271 4.5804C10.6271 3.99032 10.3973 3.43574 9.97947 3.01837C9.79189 2.83079 9.4887 2.83079 9.30112 3.01837C9.11354 3.20595 9.11354 3.50914 9.30112 3.69672C9.53715 3.93275 9.66764 4.2465 9.66764 4.5804C9.66764 4.91429 9.53763 5.22804 9.30112 5.46407C8.43999 6.3252 8.43999 7.727 9.30112 8.58813Z" fill="#FB8A22"/>
<path d="M19.8578 8.58813C19.9513 8.68168 20.0741 8.72869 20.1969 8.72869C20.3197 8.72869 20.4426 8.68168 20.5361 8.58813C20.7237 8.40055 20.7237 8.09735 20.5361 7.90978C20.0492 7.42236 20.0492 6.62984 20.5361 6.14242C20.9535 5.72505 21.1838 5.17047 21.1838 4.5804C21.1838 3.99032 20.954 3.43574 20.5361 3.01837C20.3485 2.83079 20.0453 2.83079 19.8578 3.01837C19.6702 3.20595 19.6702 3.50914 19.8578 3.69672C20.0938 3.93275 20.2243 4.2465 20.2243 4.5804C20.2243 4.91429 20.0943 5.22804 19.8578 5.46407C18.9966 6.3252 18.9966 7.727 19.8578 8.58813Z" fill="#FB8A22"/>
<path d="M14.5794 5.71032C14.673 5.80387 14.7958 5.85088 14.9186 5.85088C15.0414 5.85088 15.1642 5.80387 15.2578 5.71032C15.4454 5.52274 15.4454 5.21955 15.2578 5.03197C14.7709 4.54456 14.7709 3.75203 15.2578 3.26461C15.6752 2.84724 15.9054 2.29267 15.9054 1.70259C15.9054 1.11251 15.6756 0.557933 15.2578 0.140561C15.0702 -0.0470165 14.767 -0.0470165 14.5794 0.140561C14.3919 0.328139 14.3919 0.631333 14.5794 0.818911C14.8155 1.05494 14.946 1.36869 14.946 1.70259C14.946 2.03649 14.816 2.35023 14.5794 2.58627C13.7183 3.44739 13.7183 4.84919 14.5794 5.71032Z" fill="#FB8A22"/>
<path d="M27.1849 19.5827C26.3157 14.4778 22.3362 10.4216 17.2702 9.43914C17.2784 9.36239 17.2908 9.28515 17.2908 9.20887C17.2908 7.88623 16.2148 6.81018 14.8921 6.81018C13.5695 6.81018 12.4935 7.88623 12.4935 9.20887C12.4935 9.28515 12.5054 9.36239 12.5141 9.43914C7.44805 10.4216 3.46862 14.4778 2.59933 19.5827C1.59668 20.1503 0.5 20.9855 0.5 21.9224C0.5 24.3619 7.9417 26.0002 14.8921 26.0002C21.8426 26.0002 29.2843 24.3619 29.2843 21.9224C29.2843 20.9855 28.1876 20.1503 27.1849 19.5827ZM13.4558 9.29187C13.4539 9.26404 13.4529 9.23622 13.4529 9.20935C13.4529 8.41586 14.0987 7.77014 14.8921 7.77014C15.6856 7.77014 16.3314 8.41586 16.3314 9.20935C16.3314 9.2367 16.3304 9.26404 16.3285 9.29187C16.3059 9.28947 16.2834 9.28851 16.2613 9.28611C16.0963 9.26788 15.9303 9.25493 15.7633 9.24341C15.7019 9.23909 15.641 9.23286 15.5796 9.2295C15.3522 9.21703 15.1234 9.20983 14.8926 9.20983C14.6619 9.20983 14.433 9.21703 14.2056 9.2295C14.1442 9.23286 14.0833 9.23909 14.0219 9.24341C13.8549 9.25493 13.689 9.26836 13.5239 9.28611C13.5009 9.28851 13.4784 9.28899 13.4558 9.29187ZM12.5539 11.3859C13.3128 11.2151 14.0972 11.1283 14.8854 11.1283C14.8873 11.1283 14.8897 11.1283 14.8921 11.1283C15.157 11.1283 15.3719 11.3432 15.3719 11.6085C15.3719 11.8733 15.157 12.0878 14.8921 12.0878C14.8902 12.0878 14.8878 12.0878 14.8859 12.0878C14.1682 12.0878 13.4553 12.1665 12.765 12.3219C12.7295 12.33 12.694 12.3334 12.659 12.3334C12.4397 12.3334 12.2416 12.1823 12.1912 11.9592C12.1332 11.7006 12.2953 11.444 12.5539 11.3859ZM9.68698 12.5191C9.91534 12.3843 10.2089 12.4596 10.3442 12.6875C10.4795 12.9158 10.4042 13.2099 10.1758 13.3447C7.91483 14.6841 6.26741 17.1159 5.76896 19.8499C5.72675 20.0812 5.52478 20.2433 5.29738 20.2433C5.2686 20.2433 5.23981 20.2409 5.21103 20.2352C4.95053 20.1877 4.77734 19.9382 4.82484 19.6772C5.37318 16.6741 7.19091 13.9981 9.68698 12.5191ZM14.8921 25.0407C6.69054 25.0407 1.45948 22.9927 1.45948 21.9224C1.45948 21.7387 1.68687 21.3338 2.44966 20.8056C2.44774 20.8329 2.4487 20.8598 2.44678 20.8871C2.43047 21.15 2.41895 21.4148 2.41895 21.6825V22.0606L2.78691 22.1493C6.74667 23.0997 10.8196 23.5813 14.8921 23.5813C18.9646 23.5813 23.0376 23.0997 26.9974 22.1493L27.3653 22.0606V21.6825C27.3653 21.4148 27.3538 21.1505 27.3375 20.8871C27.3356 20.8598 27.3365 20.8329 27.3346 20.8056C28.0974 21.3338 28.3248 21.7387 28.3248 21.9224C28.3248 22.9927 23.0937 25.0407 14.8921 25.0407Z" fill="#FB8A22"/>
</svg>
