<svg width="34" height="35" viewBox="0 0 34 35" fill="none" xmlns="http://www.w3.org/2000/svg">
<rect x="0.323242" y="0.405273" width="33.4411" height="34.4862" rx="16.7206" fill="#FB8A22"/>
<path d="M25.6119 14.1262C23.7329 9.75375 20.7103 6.42754 19.1813 7.04795C16.5846 8.10488 20.7281 13.1737 7.97491 18.3563C6.8729 18.8059 6.59414 20.5959 7.05558 21.6683C7.51584 22.7383 9.02236 23.8047 10.1244 23.3575C10.3154 23.2792 11.0152 23.0538 11.0152 23.0538C11.8017 24.1107 12.625 23.4844 12.918 24.1546L14.2916 27.31C14.5514 27.9055 15.1398 28.4571 15.5668 28.2946L17.9986 27.3705C18.5538 27.1594 18.6854 26.6635 18.5158 26.2744C18.3331 25.8533 17.5834 25.73 17.3687 25.2389C17.1552 24.7501 16.4565 23.1772 16.256 22.6813C15.9832 22.0076 16.5633 21.4583 17.4067 21.3717C23.2121 20.7644 24.2975 24.3516 26.2738 23.5473C27.8005 22.9245 27.4897 18.4951 25.6119 14.1262ZM24.9582 21.2151C24.6178 21.3516 22.3331 19.552 20.874 16.1535C19.4138 12.7573 19.5976 9.65292 19.9369 9.51413C20.2762 9.37771 22.5051 11.5509 23.9642 14.9471C25.4244 18.3433 25.2975 21.0764 24.9582 21.2151Z" fill="white"/>
</svg>
