<svg width="16" height="15" viewBox="0 0 16 15" fill="none" xmlns="http://www.w3.org/2000/svg">
<path d="M4.07012 12.9093L6.59661 9.84566L7.75231 11.3198L5.52477 14.1525C4.67167 15.2365 3.09306 14.0942 4.07012 12.9093ZM7.02073 5.93258C7.26135 5.14753 7.15076 4.47672 6.24662 3.48022L4.03731 0.822476C3.72378 0.454257 2.98491 0.995041 3.29358 1.44104L5.06054 3.61754C5.39474 4.02343 4.77375 4.56057 4.42862 4.14252L2.60089 1.89189C2.26062 1.5018 1.557 2.01706 1.91306 2.46306C2.42833 3.08283 3.22553 4.09513 3.74079 4.7149C4.09807 5.07826 3.55486 5.61661 3.20244 5.16333L1.38808 2.92728C1.12194 2.63805 0.686881 2.81791 0.571433 3.15575C0.447478 3.51667 0.752504 3.78038 0.960311 4.04773L2.98491 6.66294C3.61319 7.39087 4.3156 7.82228 5.13224 7.57802C5.25741 7.54035 5.41053 7.46379 5.57459 7.36292L11.014 14.3846C11.3069 14.7625 11.872 14.8026 12.239 14.4976L12.3228 14.4284C12.736 14.0844 12.8029 13.4562 12.4492 13.0503L6.68897 6.43204C6.85668 6.2449 6.97942 6.06747 7.02073 5.93258ZM8.56045 7.46379L9.45608 6.37736C8.30403 3.52153 12.5732 -0.284611 14.6427 1.46534C17.1571 3.59323 13.4202 8.72156 10.7941 7.45406L9.73316 8.80177L8.56045 7.46379Z" fill="#FB8A22"/>
</svg>
