<svg width="13" height="12" viewBox="0 0 13 12" fill="none" xmlns="http://www.w3.org/2000/svg">
<path fill-rule="evenodd" clip-rule="evenodd" d="M6.58139 0.315186C5.54198 0.315186 4.62647 0.842114 4.08631 1.64273C3.40535 1.41524 2.6619 1.46758 2.01953 1.78823C1.37715 2.10888 0.888469 2.67158 0.660976 3.35254C0.433484 4.0335 0.48582 4.77694 0.806471 5.41932C1.12712 6.06169 1.68982 6.55038 2.37078 6.77787V9.33792C2.37078 9.81652 2.56091 10.2755 2.89932 10.6139C3.23774 10.9523 3.69674 11.1425 4.17533 11.1425H8.98746C9.46605 11.1425 9.92505 10.9523 10.2635 10.6139C10.6019 10.2755 10.792 9.81652 10.792 9.33792V6.77787C11.462 6.54178 12.0124 6.05182 12.3244 5.41365C12.6365 4.77549 12.6852 4.04024 12.4601 3.36647C12.235 2.6927 11.7541 2.13439 11.1212 1.81193C10.4882 1.48947 9.75385 1.42871 9.07648 1.64273C8.80138 1.23378 8.4299 0.898778 7.99478 0.667267C7.55966 0.435757 7.07427 0.314843 6.58139 0.315186ZM3.57382 9.33792V8.73641H9.58897V9.33792C9.58897 9.49745 9.5256 9.65045 9.41279 9.76326C9.29999 9.87607 9.14699 9.93944 8.98746 9.93944H4.17533C4.0158 9.93944 3.8628 9.87607 3.75 9.76326C3.63719 9.65045 3.57382 9.49745 3.57382 9.33792Z" fill="#475467"/>
</svg>
