<svg width="23" height="21" viewBox="0 0 23 21" fill="none" xmlns="http://www.w3.org/2000/svg">
<path fill-rule="evenodd" clip-rule="evenodd" d="M11.5492 0.942628C9.6361 0.942628 7.95104 1.91248 6.95683 3.38608C5.70347 2.96736 4.33511 3.06369 3.15277 3.65387C1.97043 4.24405 1.07097 5.27975 0.652253 6.53311C0.233536 7.78647 0.329864 9.15483 0.920047 10.3372C1.51023 11.5195 2.54592 12.419 3.79928 12.8377V17.5497C3.79928 18.4305 4.14922 19.2754 4.7721 19.8982C5.39499 20.5211 6.2398 20.8711 7.12069 20.8711H15.9778C16.8587 20.8711 17.7035 20.5211 18.3264 19.8982C18.9492 19.2754 19.2992 18.4305 19.2992 17.5497V12.8377C20.5324 12.4031 21.5453 11.5013 22.1197 10.3267C22.694 9.15215 22.7837 7.79888 22.3694 6.55875C21.9551 5.31863 21.0701 4.29101 19.905 3.6975C18.74 3.10399 17.3884 2.99214 16.1416 3.38608C15.6353 2.63336 14.9515 2.01677 14.1507 1.59066C13.3498 1.16455 12.4564 0.941997 11.5492 0.942628ZM6.01356 17.5497V16.4425H17.0849V17.5497C17.0849 17.8433 16.9683 18.1249 16.7606 18.3325C16.553 18.5401 16.2714 18.6568 15.9778 18.6568H7.12069C6.82706 18.6568 6.54546 18.5401 6.33783 18.3325C6.1302 18.1249 6.01356 17.8433 6.01356 17.5497Z" fill="black"/>
</svg>
