<svg width="20" height="18" viewBox="0 0 20 18" fill="none" xmlns="http://www.w3.org/2000/svg">
<path d="M18.6859 8.65678L15.5829 11.6384L16.3153 15.8445C16.4348 16.5311 16.1578 17.2156 15.5918 17.6302C15.0149 18.0517 14.2615 18.1096 13.6258 17.7817L9.78336 15.7917L5.94096 17.7817C5.66793 17.9232 5.37198 17.9929 5.07801 17.9929C4.68939 17.9929 4.30373 17.8703 3.97489 17.6302C3.40989 17.2156 3.13189 16.5311 3.25147 15.8445L3.98386 11.6384L0.880854 8.65678C0.372651 8.16851 0.190276 7.45019 0.405514 6.78255C0.622746 6.10694 1.1987 5.6257 1.9082 5.52406L6.20203 4.90905L8.12124 1.07763C8.43612 0.447857 9.07387 0.057312 9.78336 0.057312C10.4928 0.057312 11.1306 0.448853 11.4455 1.07763L13.3647 4.90905L17.6585 5.52406C18.367 5.6257 18.943 6.10694 19.1602 6.78255C19.3754 7.45019 19.1941 8.16851 18.6859 8.65678Z" fill="#E9ECEF"/>
</svg>
