<svg width="13" height="14" viewBox="0 0 13 14" fill="none" xmlns="http://www.w3.org/2000/svg">
<path d="M5.51813 11.2623C2.57273 11.3021 -0.131564 8.77931 0.0152358 5.45907C0.0781037 4.0337 0.629657 2.79432 1.65434 1.78888C2.81967 0.644759 4.2329 0.126325 5.85936 0.20895C7.24602 0.279587 8.44765 0.812278 9.43668 1.77981C10.5404 2.85977 11.09 4.20122 11.0871 5.73643C11.0842 7.25576 10.5365 8.57421 9.44414 9.6519C8.35464 10.7267 7.04122 11.2493 5.51813 11.262V11.2623ZM1.56393 6.02837C1.59115 6.92008 2.02409 7.93653 2.93633 8.72941C3.84856 9.52229 4.90371 9.82752 6.10792 9.67426C7.75156 9.46494 9.63566 7.955 9.53422 5.51512C9.45742 3.66626 7.9003 1.56595 5.15421 1.76587C3.32261 1.89937 1.57073 3.48675 1.56393 6.02837Z" fill="#FB8A22"/>
<path d="M8.91951 10.8933C9.44028 10.5282 9.92248 10.1325 10.3084 9.63159C10.4151 9.49323 10.5288 9.36006 10.6244 9.21457C10.6963 9.10538 10.7407 9.09793 10.8363 9.19481C11.3814 9.74888 11.9343 10.2958 12.4826 10.847C12.5804 10.9455 12.6728 11.0498 12.7626 11.1558C13.107 11.5628 13.1006 12.3624 12.6744 12.7808C12.3909 13.0591 12.0665 13.2081 11.6744 13.2C11.3302 13.1929 11.0447 13.0322 10.8068 12.7979C10.1798 12.1807 9.56083 11.555 8.93896 10.9322C8.93183 10.9251 8.92924 10.9137 8.91919 10.8933H8.91951Z" fill="#FB8A22"/>
<path d="M8.89134 5.7066C8.93476 7.6423 7.35107 8.99185 5.77224 9.08193C3.63343 9.20441 2.17094 7.48288 2.18715 5.69104C2.19557 4.753 2.55139 3.93225 3.24035 3.28454C3.92152 2.64362 4.74205 2.34649 5.68118 2.3763C7.37537 2.43009 8.9299 3.85384 8.89166 5.70627L8.89134 5.7066ZM3.28247 5.63239C3.28247 5.64309 3.28247 5.6541 3.28247 5.6648C3.28247 5.91008 3.38844 6.03969 3.59033 6.03969C3.79157 6.03969 3.89203 5.90976 3.90046 5.66577C3.91375 5.26787 4.06476 4.9189 4.32822 4.62566C4.64256 4.27572 5.03889 4.09329 5.51526 4.09427C5.69706 4.09427 5.83381 3.97503 5.84451 3.81982C5.85747 3.628 5.78067 3.48057 5.63484 3.48575C5.36684 3.49547 5.09074 3.50455 4.83441 3.57421C4.45687 3.6766 4.1448 3.90407 3.87648 4.19536C3.50024 4.60428 3.30872 5.08253 3.2828 5.63272L3.28247 5.63239Z" fill="#FB8A22"/>
</svg>
