<svg width="36" height="36" viewBox="0 0 36 36" fill="none" xmlns="http://www.w3.org/2000/svg">
<circle cx="17.59" cy="18.1763" r="16.3115" stroke="#6927DA" stroke-width="2.38704"/>
<path d="M24.0604 24.6466C20.7667 27.9402 17.0354 30.0903 13.7123 30.9448C10.3592 31.8071 7.65661 31.3107 6.05617 29.7103C4.45573 28.1098 3.95939 25.4072 4.82161 22.0541C5.67611 18.7311 7.82622 14.9997 11.1199 11.7061C14.4135 8.41241 18.1449 6.26231 21.4679 5.40781C24.821 4.54559 27.5236 5.04193 29.1241 6.64237C30.7245 8.24281 31.2209 10.9454 30.3586 14.2985C29.5041 17.6216 27.354 21.3529 24.0604 24.6466Z" stroke="#6927DA" stroke-width="2.38704"/>
<path d="M24.0598 11.7063C27.3535 15 29.5036 18.7313 30.3581 22.0544C31.2203 25.4075 30.724 28.1101 29.1235 29.7105C27.5231 31.311 24.8205 31.8073 21.4674 30.9451C18.1443 30.0906 14.4129 27.9405 11.1193 24.6469C7.82567 21.3532 5.67557 17.6219 4.82107 14.2988C3.95885 10.9457 4.45518 8.24309 6.05562 6.64265C7.65606 5.04221 10.3587 4.54587 13.7118 5.40809C17.0348 6.26259 20.7662 8.41269 24.0598 11.7063Z" stroke="#6927DA" stroke-width="2.38704"/>
</svg>
