<svg width="41" height="40" viewBox="0 0 41 40" fill="none" xmlns="http://www.w3.org/2000/svg">
<rect x="0.981445" y="0.374451" width="39.1767" height="39.1767" rx="8.70594" fill="#FB8A22" fill-opacity="0.1"/>
<path d="M23.8637 12.0198V12.0163H24.7822L25.1178 12.0833C25.3416 12.1268 25.5447 12.1838 25.7272 12.2544C25.9097 12.325 26.0864 12.4073 26.2571 12.5013C26.4278 12.5954 26.5827 12.6913 26.7216 12.7889C26.8594 12.8853 26.9831 12.9876 27.0926 13.0958C27.2009 13.2051 27.3699 13.2333 27.5995 13.1804C27.8291 13.1275 28.0764 13.054 28.3413 12.96C28.6063 12.8659 28.8683 12.7601 29.1273 12.6425C29.3864 12.5249 29.5442 12.4502 29.6007 12.4184C29.6561 12.3855 29.6855 12.3679 29.689 12.3655L29.6926 12.3602L29.7102 12.3514L29.7279 12.3426L29.7455 12.3338L29.7632 12.325L29.7667 12.3197L29.772 12.3161L29.7774 12.3126L29.7809 12.3073L29.7985 12.302L29.8162 12.2985L29.8127 12.325L29.8074 12.3514L29.7985 12.3779L29.7897 12.4043L29.7809 12.422L29.772 12.4396L29.7632 12.4661C29.7573 12.4837 29.7514 12.5072 29.7455 12.5366C29.7397 12.566 29.6837 12.6836 29.5777 12.8894C29.4718 13.0952 29.3393 13.3039 29.1803 13.5156C29.0214 13.7272 28.8789 13.8871 28.7529 13.9953C28.6257 14.1047 28.5415 14.1811 28.5003 14.2246C28.4591 14.2693 28.409 14.3105 28.3502 14.3481L28.2618 14.4063L28.2442 14.4151L28.2265 14.424L28.223 14.4293L28.2177 14.4328L28.2124 14.4363L28.2089 14.4416L28.1912 14.4504L28.1735 14.4592L28.17 14.4645L28.1647 14.4681L28.1594 14.4716L28.1559 14.4769L28.1524 14.4822L28.147 14.4857L28.1417 14.4892L28.1382 14.4945H28.2265L28.7211 14.3887C29.0508 14.3181 29.3658 14.2329 29.6661 14.1329L30.143 13.9742L30.196 13.9565L30.2224 13.9477L30.2401 13.9389L30.2578 13.9301L30.2754 13.9213L30.2931 13.9124L30.3284 13.9071L30.3638 13.9036V13.9389L30.3549 13.9424L30.3461 13.9477L30.3426 13.953L30.3373 13.9565L30.332 13.9601L30.3284 13.9654L30.3249 13.9706L30.3196 13.9742L30.3143 13.9777L30.3108 13.983L30.3072 13.9883L30.3019 13.9918L30.2931 14.0095L30.2843 14.0271L30.279 14.0306C30.2766 14.0341 30.2019 14.1341 30.0546 14.3305C29.9075 14.528 29.828 14.628 29.8162 14.6303C29.8044 14.6339 29.7879 14.6515 29.7667 14.6832C29.7467 14.7162 29.6219 14.8473 29.3923 15.0766C29.1627 15.3059 28.9378 15.5099 28.7176 15.6887C28.4962 15.8686 28.3843 16.0896 28.382 16.3519C28.3784 16.6129 28.3649 16.9081 28.3413 17.2373C28.3178 17.5666 28.2736 17.9223 28.2089 18.3045C28.1441 18.6866 28.044 19.1188 27.9086 19.6009C27.7732 20.083 27.6083 20.5534 27.414 21.012C27.2197 21.4706 27.0166 21.8822 26.8046 22.2467C26.5927 22.6113 26.3984 22.9199 26.2218 23.1727C26.0451 23.4256 25.8656 23.6637 25.683 23.8871C25.5005 24.1105 25.2697 24.3622 24.9907 24.642C24.7104 24.9207 24.5573 25.0736 24.5314 25.1006C24.5043 25.1265 24.3889 25.223 24.1852 25.3899C23.9827 25.5581 23.7648 25.7262 23.5317 25.8944C23.2997 26.0614 23.0866 26.2007 22.8923 26.3124C22.698 26.4241 22.4637 26.5517 22.1893 26.6952C21.9161 26.8398 21.6205 26.9739 21.3026 27.0973C20.9847 27.2208 20.6491 27.3355 20.2958 27.4413C19.9425 27.5471 19.6011 27.6295 19.2713 27.6882C18.9416 27.747 18.5678 27.797 18.1497 27.8382L17.5227 27.8999V27.9087H16.3746V27.8999L16.2245 27.8911C16.1244 27.8852 16.0419 27.8793 15.9772 27.8734C15.9124 27.8676 15.6681 27.8352 15.2442 27.7764C14.8202 27.7176 14.4876 27.6588 14.2462 27.6C14.0048 27.5413 13.6456 27.4295 13.1687 27.2649C12.6918 27.1003 12.2838 26.9339 11.9447 26.7657C11.6067 26.5988 11.3948 26.4929 11.3088 26.4482C11.224 26.4047 11.1287 26.3506 11.0227 26.286L10.8637 26.189L10.8602 26.1837L10.8549 26.1801L10.8496 26.1766L10.846 26.1713L10.8284 26.1625L10.8107 26.1537L10.8072 26.1484L10.8019 26.1449L10.7966 26.1413L10.7931 26.136L10.7895 26.1307L10.7842 26.1272H10.7754V26.0919L10.7931 26.0955L10.8107 26.1008L10.8902 26.1096C10.9432 26.1155 11.0874 26.1243 11.3229 26.136C11.5585 26.1478 11.8087 26.1478 12.0736 26.136C12.3386 26.1243 12.6094 26.0978 12.8861 26.0567C13.1629 26.0155 13.4896 25.945 13.8664 25.845C14.2433 25.745 14.5895 25.6263 14.905 25.4887C15.2194 25.35 15.4432 25.2465 15.5762 25.1783C15.7081 25.1112 15.9095 24.9866 16.1803 24.8043L16.5865 24.5309L16.5901 24.5256L16.5954 24.5221L16.6007 24.5186L16.6042 24.5133L16.6077 24.508L16.613 24.5045L16.6184 24.5009L16.6219 24.4956L16.6395 24.4904L16.6572 24.4868L16.6607 24.4692L16.666 24.4515L16.6713 24.448L16.6749 24.4427L16.5336 24.4339C16.4394 24.428 16.3481 24.4221 16.2598 24.4163C16.1715 24.4104 16.0331 24.3839 15.8447 24.3369C15.6563 24.2899 15.4532 24.2193 15.2353 24.1252C15.0175 24.0312 14.8055 23.9194 14.5994 23.7901C14.3934 23.6608 14.2444 23.5531 14.1526 23.4673C14.0619 23.3826 13.9441 23.2627 13.7993 23.1075C13.6557 22.9511 13.5308 22.7906 13.4249 22.6259C13.3189 22.4613 13.2176 22.2714 13.1211 22.0562L12.9744 21.7352L12.9656 21.7087L12.9568 21.6823L12.9515 21.6646L12.9479 21.647L12.9744 21.6505L13.0009 21.6558L13.1952 21.6823C13.3248 21.6999 13.5279 21.7058 13.8046 21.6999C14.0813 21.694 14.2727 21.6823 14.3787 21.6646C14.4846 21.647 14.5494 21.6352 14.573 21.6294L14.6083 21.6205L14.6524 21.6117L14.6966 21.6029L14.7001 21.5976L14.7054 21.5941L14.7107 21.5906L14.7143 21.5853L14.6789 21.5764L14.6436 21.5676L14.6083 21.5588L14.573 21.55L14.5376 21.5412C14.5141 21.5353 14.4729 21.5235 14.414 21.5059C14.3551 21.4882 14.1961 21.4236 13.9371 21.3119C13.678 21.2002 13.472 21.0914 13.3189 20.9855C13.1654 20.8794 13.0191 20.7633 12.8808 20.6381C12.7431 20.5111 12.5918 20.3476 12.4269 20.1477C12.262 19.9478 12.1149 19.7156 11.9853 19.451C11.8558 19.1864 11.7586 18.9336 11.6939 18.6925C11.6294 18.4529 11.5868 18.2079 11.5667 17.9605L11.5349 17.5901L11.5526 17.5936L11.5702 17.5989L11.5879 17.6077L11.6056 17.6166L11.6232 17.6254L11.6409 17.6342L11.9147 17.7577C12.0972 17.84 12.3239 17.9105 12.5947 17.9693C12.8655 18.0281 13.0274 18.0605 13.0804 18.0663L13.1599 18.0752H13.3189L13.3154 18.0699L13.31 18.0663L13.3047 18.0628L13.3012 18.0575L13.2977 18.0522L13.2924 18.0487L13.2871 18.0452L13.2835 18.0399L13.2659 18.0311L13.2482 18.0222L13.2447 18.017L13.2394 18.0134L13.2341 18.0099L13.2306 18.0046L13.2129 17.9958L13.1952 17.987L13.1917 17.9817C13.1882 17.9793 13.1375 17.9417 13.0398 17.8688C12.9432 17.7947 12.842 17.6989 12.736 17.5813C12.63 17.4637 12.524 17.3402 12.4181 17.2109C12.3119 17.0812 12.2173 16.9425 12.1354 16.7964C12.053 16.6494 11.9659 16.4624 11.874 16.2355C11.7834 16.0097 11.7145 15.7821 11.6674 15.5528C11.6203 15.3235 11.5938 15.0972 11.5879 14.8737C11.582 14.6503 11.5879 14.4592 11.6056 14.3005C11.6232 14.1417 11.6585 13.9624 11.7115 13.7625C11.7645 13.5626 11.8411 13.3509 11.9412 13.1275L12.0913 12.7924L12.1001 12.7659L12.109 12.7395L12.1143 12.7359L12.1178 12.7306L12.1213 12.7254L12.1266 12.7218L12.1319 12.7254L12.1354 12.7306L12.139 12.7359L12.1443 12.7395L12.1496 12.743L12.1531 12.7483L12.1566 12.7536L12.1619 12.7571L12.1708 12.7747L12.1796 12.7924L12.1849 12.7959L12.1884 12.8012L12.4269 13.0658C12.5859 13.2422 12.7743 13.4391 12.9921 13.6567C13.21 13.8742 13.3307 13.9871 13.3542 13.9953C13.3778 14.0047 13.4072 14.0318 13.4425 14.0765C13.4778 14.12 13.5956 14.2241 13.7958 14.3887C13.996 14.5533 14.258 14.7444 14.5818 14.9619C14.9056 15.1795 15.2648 15.3941 15.6592 15.6058C16.0537 15.8174 16.4776 16.0085 16.931 16.179C17.3843 16.3495 17.7023 16.4612 17.8848 16.5141C18.0673 16.5671 18.3793 16.6347 18.8209 16.717C19.2625 16.7993 19.5952 16.8522 19.8189 16.8757C20.0426 16.8992 20.1957 16.9128 20.2781 16.9163L20.4018 16.9198L20.3983 16.8934L20.3929 16.8669L20.3576 16.6464C20.3341 16.4995 20.3223 16.2937 20.3223 16.0291C20.3223 15.7645 20.3429 15.5205 20.3841 15.2971C20.4253 15.0736 20.4872 14.8473 20.5696 14.618C20.652 14.3887 20.7327 14.2046 20.8116 14.0659C20.8916 13.9283 20.9964 13.7713 21.126 13.5949C21.2555 13.4186 21.4233 13.2363 21.6294 13.0481C21.8354 12.86 22.0709 12.6924 22.3359 12.5454C22.6008 12.3985 22.8452 12.2867 23.0689 12.2103C23.2926 12.1339 23.481 12.0839 23.6341 12.0604C23.7872 12.0369 23.8637 12.0233 23.8637 12.0198Z" fill="#FB8A22"/>
</svg>
