<svg width="14" height="14" viewBox="0 0 14 14" fill="none" xmlns="http://www.w3.org/2000/svg">
<path d="M7.3032 0.728882C3.65794 0.728882 0.699463 3.68736 0.699463 7.33262C0.699463 10.9779 3.65794 13.9364 7.3032 13.9364C10.9485 13.9364 13.9069 10.9779 13.9069 7.33262C13.9069 3.68736 10.9485 0.728882 7.3032 0.728882ZM2.02021 7.33262C2.02021 6.92979 2.07304 6.53357 2.15889 6.15715L5.31547 9.31374V9.97411C5.31547 10.7005 5.90981 11.2949 6.63622 11.2949V12.5694C4.04095 12.2392 2.02021 10.0203 2.02021 7.33262ZM11.1928 10.8986C11.0211 10.3637 10.5324 9.97411 9.93809 9.97411H9.27772V7.99299C9.27772 7.62979 8.98055 7.33262 8.61734 7.33262H4.6551V6.01187H5.97585C6.33905 6.01187 6.63622 5.7147 6.63622 5.3515V4.03075H7.95697C8.68338 4.03075 9.27772 3.43641 9.27772 2.71V2.43925C11.2126 3.21849 12.5862 5.12037 12.5862 7.33262C12.5862 8.7062 12.0513 9.96091 11.1928 10.8986Z" fill="white"/>
</svg>
