<svg width="40" height="40" viewBox="0 0 40 40" fill="none" xmlns="http://www.w3.org/2000/svg">
<rect x="0.74707" y="0.374451" width="39.1767" height="39.1767" rx="8.70594" fill="#FB8A22" fill-opacity="0.1"/>
<path d="M20.813 27.5586L16.3923 27.476C14.961 27.4472 13.5261 27.5047 12.1229 27.2064C9.98825 26.7608 9.83702 24.5757 9.67878 22.7428C9.46073 20.166 9.54514 17.5425 9.95662 14.9872C10.1889 13.5534 11.1031 12.6979 12.5168 12.6048C17.2891 12.2669 22.0932 12.3069 26.8549 12.4646C27.3578 12.479 27.8642 12.558 28.3601 12.6479C30.8078 13.0864 30.8675 15.5626 31.0262 17.647C31.1845 19.753 31.1176 21.8698 30.8152 23.9615C30.5725 25.6933 30.1083 27.1456 28.149 27.2858C25.6942 27.4691 23.2957 27.6167 20.834 27.5697C20.8341 27.5586 20.82 27.5586 20.813 27.5586ZM18.2141 23.1741C20.064 22.0887 21.8786 21.0213 23.7179 19.9432C21.8645 18.8578 20.0534 17.7904 18.2141 16.7123V23.1741Z" fill="#FB8A22"/>
</svg>
